<svg xmlns="http://www.w3.org/2000/svg" xmlns:xlink="http://www.w3.org/1999/xlink" width="1000" zoomAndPan="magnify" viewBox="0 0 750 225" height="300" preserveAspectRatio="xMidYMid meet" version="1.0"><defs><g/><clipPath id="871faf18e9"><path d="M 423.878906 25.628906 L 559.878906 25.628906 L 559.878906 202.425781 L 423.878906 202.425781 Z M 423.878906 25.628906 " clip-rule="nonzero"/></clipPath></defs><rect x="-75" width="900" fill="#ffffff" y="-22.5" height="270" fill-opacity="1"/><rect x="-75" width="900" fill="#fffefc" y="-22.5" height="270" fill-opacity="1"/><g fill="#3a3a3a" fill-opacity="1"><g transform="translate(0.0278315, 163.937937)"><g><path d="M 107.234375 -104.40625 L 70.203125 0 L 38.375 0 L 1.34375 -104.40625 L 28.40625 -104.40625 L 54.28125 -25.578125 L 80.3125 -104.40625 Z M 107.234375 -104.40625 "/></g></g></g><g fill="#3a3a3a" fill-opacity="1"><g transform="translate(108.601933, 163.937937)"><g><path d="M 47 1.1875 C 38.863281 1.1875 31.546875 -0.546875 25.046875 -4.015625 C 18.554688 -7.484375 13.453125 -12.441406 9.734375 -18.890625 C 6.023438 -25.335938 4.171875 -32.875 4.171875 -41.5 C 4.171875 -50.019531 6.050781 -57.523438 9.8125 -64.015625 C 13.582031 -70.515625 18.738281 -75.5 25.28125 -78.96875 C 31.820312 -82.445312 39.160156 -84.1875 47.296875 -84.1875 C 55.429688 -84.1875 62.769531 -82.445312 69.3125 -78.96875 C 75.851562 -75.5 81.007812 -70.515625 84.78125 -64.015625 C 88.550781 -57.523438 90.4375 -50.019531 90.4375 -41.5 C 90.4375 -32.96875 88.523438 -25.453125 84.703125 -18.953125 C 80.890625 -12.460938 75.6875 -7.484375 69.09375 -4.015625 C 62.5 -0.546875 55.132812 1.1875 47 1.1875 Z M 47 -20.828125 C 51.851562 -20.828125 55.988281 -22.609375 59.40625 -26.171875 C 62.832031 -29.742188 64.546875 -34.851562 64.546875 -41.5 C 64.546875 -48.144531 62.882812 -53.25 59.5625 -56.8125 C 56.238281 -60.382812 52.148438 -62.171875 47.296875 -62.171875 C 42.335938 -62.171875 38.222656 -60.410156 34.953125 -56.890625 C 31.679688 -53.367188 30.046875 -48.238281 30.046875 -41.5 C 30.046875 -34.851562 31.65625 -29.742188 34.875 -26.171875 C 38.101562 -22.609375 42.144531 -20.828125 47 -20.828125 Z M 47 -20.828125 "/></g></g></g><g fill="#3a3a3a" fill-opacity="1"><g transform="translate(203.343972, 163.937937)"><g><path d="M 22.015625 -91.625 C 17.546875 -91.625 13.898438 -92.9375 11.078125 -95.5625 C 8.253906 -98.1875 6.84375 -101.429688 6.84375 -105.296875 C 6.84375 -109.265625 8.253906 -112.5625 11.078125 -115.1875 C 13.898438 -117.820312 17.546875 -119.140625 22.015625 -119.140625 C 26.378906 -119.140625 29.972656 -117.820312 32.796875 -115.1875 C 35.617188 -112.5625 37.03125 -109.265625 37.03125 -105.296875 C 37.03125 -101.429688 35.617188 -98.1875 32.796875 -95.5625 C 29.972656 -92.9375 26.378906 -91.625 22.015625 -91.625 Z M 34.65625 -83 L 34.65625 0 L 9.21875 0 L 9.21875 -83 Z M 34.65625 -83 "/></g></g></g><g fill="#3a3a3a" fill-opacity="1"><g transform="translate(247.219809, 163.937937)"><g><path d="M 4.171875 -41.5 C 4.171875 -50.125 5.925781 -57.65625 9.4375 -64.09375 C 12.957031 -70.539062 17.863281 -75.5 24.15625 -78.96875 C 30.457031 -82.445312 37.675781 -84.1875 45.8125 -84.1875 C 56.21875 -84.1875 64.914062 -81.457031 71.90625 -76 C 78.90625 -70.550781 83.492188 -62.867188 85.671875 -52.953125 L 58.59375 -52.953125 C 56.320312 -59.296875 51.910156 -62.46875 45.359375 -62.46875 C 40.703125 -62.46875 36.984375 -60.65625 34.203125 -57.03125 C 31.429688 -53.414062 30.046875 -48.238281 30.046875 -41.5 C 30.046875 -34.757812 31.429688 -29.578125 34.203125 -25.953125 C 36.984375 -22.335938 40.703125 -20.53125 45.359375 -20.53125 C 51.910156 -20.53125 56.320312 -23.703125 58.59375 -30.046875 L 85.671875 -30.046875 C 83.492188 -20.328125 78.882812 -12.691406 71.84375 -7.140625 C 64.800781 -1.585938 56.125 1.1875 45.8125 1.1875 C 37.675781 1.1875 30.457031 -0.546875 24.15625 -4.015625 C 17.863281 -7.484375 12.957031 -12.441406 9.4375 -18.890625 C 5.925781 -25.335938 4.171875 -32.875 4.171875 -41.5 Z M 4.171875 -41.5 "/></g></g></g><g fill="#3a3a3a" fill-opacity="1"><g transform="translate(337.202437, 163.937937)"><g><path d="M 87.453125 -42.828125 C 87.453125 -40.453125 87.304688 -37.976562 87.015625 -35.40625 L 29.453125 -35.40625 C 29.847656 -30.25 31.503906 -26.304688 34.421875 -23.578125 C 37.347656 -20.847656 40.945312 -19.484375 45.21875 -19.484375 C 51.5625 -19.484375 55.972656 -22.160156 58.453125 -27.515625 L 85.515625 -27.515625 C 84.128906 -22.054688 81.625 -17.144531 78 -12.78125 C 74.382812 -8.425781 69.847656 -5.007812 64.390625 -2.53125 C 58.941406 -0.0507812 52.847656 1.1875 46.109375 1.1875 C 37.972656 1.1875 30.734375 -0.546875 24.390625 -4.015625 C 18.046875 -7.484375 13.085938 -12.441406 9.515625 -18.890625 C 5.953125 -25.335938 4.171875 -32.875 4.171875 -41.5 C 4.171875 -50.125 5.925781 -57.65625 9.4375 -64.09375 C 12.957031 -70.539062 17.890625 -75.5 24.234375 -78.96875 C 30.585938 -82.445312 37.878906 -84.1875 46.109375 -84.1875 C 54.140625 -84.1875 61.273438 -82.5 67.515625 -79.125 C 73.765625 -75.75 78.648438 -70.9375 82.171875 -64.6875 C 85.691406 -58.445312 87.453125 -51.160156 87.453125 -42.828125 Z M 61.421875 -49.53125 C 61.421875 -53.894531 59.929688 -57.363281 56.953125 -59.9375 C 53.984375 -62.519531 50.269531 -63.8125 45.8125 -63.8125 C 41.550781 -63.8125 37.957031 -62.570312 35.03125 -60.09375 C 32.101562 -57.613281 30.289062 -54.09375 29.59375 -49.53125 Z M 61.421875 -49.53125 "/></g></g></g><g fill="#3a3a3a" fill-opacity="1"><g transform="translate(428.828483, 163.937937)"><g/></g></g><g fill="#3a3a3a" fill-opacity="1"><g transform="translate(460.359589, 163.937937)"><g/></g></g><g fill="#3a3a3a" fill-opacity="1"><g transform="translate(491.890694, 163.937937)"><g/></g></g><g fill="#3a3a3a" fill-opacity="1"><g transform="translate(523.4218, 163.937937)"><g/></g></g><g fill="#3a3a3a" fill-opacity="1"><g transform="translate(554.961056, 163.937937)"><g><path d="M 47 1.1875 C 38.863281 1.1875 31.546875 -0.546875 25.046875 -4.015625 C 18.554688 -7.484375 13.453125 -12.441406 9.734375 -18.890625 C 6.023438 -25.335938 4.171875 -32.875 4.171875 -41.5 C 4.171875 -50.019531 6.050781 -57.523438 9.8125 -64.015625 C 13.582031 -70.515625 18.738281 -75.5 25.28125 -78.96875 C 31.820312 -82.445312 39.160156 -84.1875 47.296875 -84.1875 C 55.429688 -84.1875 62.769531 -82.445312 69.3125 -78.96875 C 75.851562 -75.5 81.007812 -70.515625 84.78125 -64.015625 C 88.550781 -57.523438 90.4375 -50.019531 90.4375 -41.5 C 90.4375 -32.96875 88.523438 -25.453125 84.703125 -18.953125 C 80.890625 -12.460938 75.6875 -7.484375 69.09375 -4.015625 C 62.5 -0.546875 55.132812 1.1875 47 1.1875 Z M 47 -20.828125 C 51.851562 -20.828125 55.988281 -22.609375 59.40625 -26.171875 C 62.832031 -29.742188 64.546875 -34.851562 64.546875 -41.5 C 64.546875 -48.144531 62.882812 -53.25 59.5625 -56.8125 C 56.238281 -60.382812 52.148438 -62.171875 47.296875 -62.171875 C 42.335938 -62.171875 38.222656 -60.410156 34.953125 -56.890625 C 31.679688 -53.367188 30.046875 -48.238281 30.046875 -41.5 C 30.046875 -34.851562 31.65625 -29.742188 34.875 -26.171875 C 38.101562 -22.609375 42.144531 -20.828125 47 -20.828125 Z M 47 -20.828125 "/></g></g></g><g fill="#3a3a3a" fill-opacity="1"><g transform="translate(649.703096, 163.937937)"><g><path d="M 59.796875 -83.890625 C 69.503906 -83.890625 77.257812 -80.738281 83.0625 -74.4375 C 88.863281 -68.144531 91.765625 -59.492188 91.765625 -48.484375 L 91.765625 0 L 66.484375 0 L 66.484375 -45.0625 C 66.484375 -50.613281 65.046875 -54.925781 62.171875 -58 C 59.296875 -61.070312 55.425781 -62.609375 50.5625 -62.609375 C 45.707031 -62.609375 41.84375 -61.070312 38.96875 -58 C 36.09375 -54.925781 34.65625 -50.613281 34.65625 -45.0625 L 34.65625 0 L 9.21875 0 L 9.21875 -83 L 34.65625 -83 L 34.65625 -71.984375 C 37.226562 -75.648438 40.695312 -78.550781 45.0625 -80.6875 C 49.425781 -82.820312 54.335938 -83.890625 59.796875 -83.890625 Z M 59.796875 -83.890625 "/></g></g></g><g clip-path="url(#871faf18e9)"><path fill="#1c534a" d="M 559.695312 53.5625 C 560.214844 52.867188 560.492188 52.027344 560.492188 51.167969 L 560.492188 29.675781 C 560.492188 27.453125 558.691406 25.660156 556.472656 25.660156 L 431.917969 25.660156 C 429.699219 25.660156 427.898438 27.453125 427.898438 29.675781 L 427.898438 53.785156 C 427.898438 56.007812 429.699219 57.800781 431.917969 57.800781 L 516.292969 57.800781 L 424.675781 174.542969 C 424.15625 175.238281 423.878906 176.078125 423.878906 176.9375 L 423.878906 198.429688 C 423.878906 200.652344 425.679688 202.449219 427.898438 202.449219 L 556.472656 202.449219 C 558.691406 202.449219 560.492188 200.652344 560.492188 198.429688 L 560.492188 174.324219 C 560.492188 172.101562 558.691406 170.304688 556.472656 170.304688 L 472.097656 170.304688 Z M 559.695312 53.5625 " fill-opacity="1" fill-rule="nonzero"/></g></svg>