<svg xmlns="http://www.w3.org/2000/svg" xmlns:xlink="http://www.w3.org/1999/xlink" width="500" zoomAndPan="magnify" viewBox="0 0 375 374.999991" height="500" preserveAspectRatio="xMidYMid meet" version="1.0"><defs><g/><clipPath id="5187d875f3"><path d="M 207.050781 153.871094 L 261.800781 153.871094 L 261.800781 224.371094 L 207.050781 224.371094 Z M 207.050781 153.871094 " clip-rule="nonzero"/></clipPath></defs><rect x="-37.5" width="450" fill="#ffffff" y="-37.499999" height="449.999989" fill-opacity="1"/><rect x="-37.5" width="450" fill="#fffefc" y="-37.499999" height="449.999989" fill-opacity="1"/><g fill="#3a3a3a" fill-opacity="1"><g transform="translate(37.511135, 209.194446)"><g><path d="M 42.90625 -41.765625 L 28.078125 0 L 15.34375 0 L 0.53125 -41.765625 L 11.359375 -41.765625 L 21.71875 -10.234375 L 32.125 -41.765625 Z M 42.90625 -41.765625 "/></g></g></g><g fill="#3a3a3a" fill-opacity="1"><g transform="translate(80.940774, 209.194446)"><g><path d="M 18.796875 0.46875 C 15.546875 0.46875 12.617188 -0.222656 10.015625 -1.609375 C 7.421875 -2.992188 5.378906 -4.972656 3.890625 -7.546875 C 2.410156 -10.128906 1.671875 -13.144531 1.671875 -16.59375 C 1.671875 -20.007812 2.421875 -23.015625 3.921875 -25.609375 C 5.429688 -28.210938 7.492188 -30.207031 10.109375 -31.59375 C 12.734375 -32.976562 15.671875 -33.671875 18.921875 -33.671875 C 22.171875 -33.671875 25.101562 -32.976562 27.71875 -31.59375 C 30.34375 -30.207031 32.40625 -28.210938 33.90625 -25.609375 C 35.414062 -23.015625 36.171875 -20.007812 36.171875 -16.59375 C 36.171875 -13.1875 35.40625 -10.179688 33.875 -7.578125 C 32.351562 -4.984375 30.273438 -2.992188 27.640625 -1.609375 C 25.003906 -0.222656 22.054688 0.46875 18.796875 0.46875 Z M 18.796875 -8.328125 C 20.742188 -8.328125 22.398438 -9.039062 23.765625 -10.46875 C 25.140625 -11.894531 25.828125 -13.9375 25.828125 -16.59375 C 25.828125 -19.257812 25.160156 -21.304688 23.828125 -22.734375 C 22.503906 -24.160156 20.867188 -24.875 18.921875 -24.875 C 16.941406 -24.875 15.296875 -24.164062 13.984375 -22.75 C 12.671875 -21.34375 12.015625 -19.289062 12.015625 -16.59375 C 12.015625 -13.9375 12.660156 -11.894531 13.953125 -10.46875 C 15.242188 -9.039062 16.859375 -8.328125 18.796875 -8.328125 Z M 18.796875 -8.328125 "/></g></g></g><g fill="#3a3a3a" fill-opacity="1"><g transform="translate(118.837589, 209.194446)"><g><path d="M 8.8125 -36.65625 C 7.019531 -36.65625 5.554688 -37.179688 4.421875 -38.234375 C 3.296875 -39.285156 2.734375 -40.582031 2.734375 -42.125 C 2.734375 -43.707031 3.296875 -45.023438 4.421875 -46.078125 C 5.554688 -47.128906 7.019531 -47.65625 8.8125 -47.65625 C 10.550781 -47.65625 11.984375 -47.128906 13.109375 -46.078125 C 14.242188 -45.023438 14.8125 -43.707031 14.8125 -42.125 C 14.8125 -40.582031 14.242188 -39.285156 13.109375 -38.234375 C 11.984375 -37.179688 10.550781 -36.65625 8.8125 -36.65625 Z M 13.859375 -33.203125 L 13.859375 0 L 3.6875 0 L 3.6875 -33.203125 Z M 13.859375 -33.203125 "/></g></g></g><g fill="#3a3a3a" fill-opacity="1"><g transform="translate(136.387923, 209.194446)"><g><path d="M 1.671875 -16.59375 C 1.671875 -20.050781 2.375 -23.066406 3.78125 -25.640625 C 5.1875 -28.222656 7.148438 -30.207031 9.671875 -31.59375 C 12.191406 -32.976562 15.078125 -33.671875 18.328125 -33.671875 C 22.492188 -33.671875 25.972656 -32.578125 28.765625 -30.390625 C 31.566406 -28.210938 33.398438 -25.144531 34.265625 -21.1875 L 23.4375 -21.1875 C 22.53125 -23.71875 20.765625 -24.984375 18.140625 -24.984375 C 16.273438 -24.984375 14.785156 -24.257812 13.671875 -22.8125 C 12.566406 -21.363281 12.015625 -19.289062 12.015625 -16.59375 C 12.015625 -13.894531 12.566406 -11.820312 13.671875 -10.375 C 14.785156 -8.9375 16.273438 -8.21875 18.140625 -8.21875 C 20.765625 -8.21875 22.53125 -9.484375 23.4375 -12.015625 L 34.265625 -12.015625 C 33.398438 -8.128906 31.554688 -5.078125 28.734375 -2.859375 C 25.921875 -0.640625 22.453125 0.46875 18.328125 0.46875 C 15.078125 0.46875 12.191406 -0.222656 9.671875 -1.609375 C 7.148438 -2.992188 5.1875 -4.972656 3.78125 -7.546875 C 2.375 -10.128906 1.671875 -13.144531 1.671875 -16.59375 Z M 1.671875 -16.59375 "/></g></g></g><g fill="#3a3a3a" fill-opacity="1"><g transform="translate(172.380973, 209.194446)"><g><path d="M 34.984375 -17.140625 C 34.984375 -16.179688 34.925781 -15.1875 34.8125 -14.15625 L 11.78125 -14.15625 C 11.9375 -12.09375 12.597656 -10.515625 13.765625 -9.421875 C 14.941406 -8.335938 16.382812 -7.796875 18.09375 -7.796875 C 20.625 -7.796875 22.390625 -8.863281 23.390625 -11 L 34.21875 -11 C 33.65625 -8.820312 32.648438 -6.859375 31.203125 -5.109375 C 29.753906 -3.367188 27.9375 -2.003906 25.75 -1.015625 C 23.570312 -0.0234375 21.132812 0.46875 18.4375 0.46875 C 15.1875 0.46875 12.289062 -0.222656 9.75 -1.609375 C 7.21875 -2.992188 5.238281 -4.972656 3.8125 -7.546875 C 2.382812 -10.128906 1.671875 -13.144531 1.671875 -16.59375 C 1.671875 -20.050781 2.375 -23.066406 3.78125 -25.640625 C 5.1875 -28.222656 7.15625 -30.207031 9.6875 -31.59375 C 12.226562 -32.976562 15.144531 -33.671875 18.4375 -33.671875 C 21.65625 -33.671875 24.515625 -32.992188 27.015625 -31.640625 C 29.515625 -30.296875 31.46875 -28.375 32.875 -25.875 C 34.28125 -23.382812 34.984375 -20.472656 34.984375 -17.140625 Z M 24.578125 -19.8125 C 24.578125 -21.5625 23.976562 -22.953125 22.78125 -23.984375 C 21.59375 -25.015625 20.109375 -25.53125 18.328125 -25.53125 C 16.617188 -25.53125 15.175781 -25.03125 14 -24.03125 C 12.832031 -23.039062 12.113281 -21.632812 11.84375 -19.8125 Z M 24.578125 -19.8125 "/></g></g></g><g fill="#3a3a3a" fill-opacity="1"><g transform="translate(209.03139, 209.194446)"><g/></g></g><g fill="#3a3a3a" fill-opacity="1"><g transform="translate(221.643832, 209.194446)"><g/></g></g><g fill="#3a3a3a" fill-opacity="1"><g transform="translate(234.256274, 209.194446)"><g/></g></g><g fill="#3a3a3a" fill-opacity="1"><g transform="translate(246.868716, 209.194446)"><g/></g></g><g fill="#3a3a3a" fill-opacity="1"><g transform="translate(259.484418, 209.194446)"><g><path d="M 18.796875 0.46875 C 15.546875 0.46875 12.617188 -0.222656 10.015625 -1.609375 C 7.421875 -2.992188 5.378906 -4.972656 3.890625 -7.546875 C 2.410156 -10.128906 1.671875 -13.144531 1.671875 -16.59375 C 1.671875 -20.007812 2.421875 -23.015625 3.921875 -25.609375 C 5.429688 -28.210938 7.492188 -30.207031 10.109375 -31.59375 C 12.734375 -32.976562 15.671875 -33.671875 18.921875 -33.671875 C 22.171875 -33.671875 25.101562 -32.976562 27.71875 -31.59375 C 30.34375 -30.207031 32.40625 -28.210938 33.90625 -25.609375 C 35.414062 -23.015625 36.171875 -20.007812 36.171875 -16.59375 C 36.171875 -13.1875 35.40625 -10.179688 33.875 -7.578125 C 32.351562 -4.984375 30.273438 -2.992188 27.640625 -1.609375 C 25.003906 -0.222656 22.054688 0.46875 18.796875 0.46875 Z M 18.796875 -8.328125 C 20.742188 -8.328125 22.398438 -9.039062 23.765625 -10.46875 C 25.140625 -11.894531 25.828125 -13.9375 25.828125 -16.59375 C 25.828125 -19.257812 25.160156 -21.304688 23.828125 -22.734375 C 22.503906 -24.160156 20.867188 -24.875 18.921875 -24.875 C 16.941406 -24.875 15.296875 -24.164062 13.984375 -22.75 C 12.671875 -21.34375 12.015625 -19.289062 12.015625 -16.59375 C 12.015625 -13.9375 12.660156 -11.894531 13.953125 -10.46875 C 15.242188 -9.039062 16.859375 -8.328125 18.796875 -8.328125 Z M 18.796875 -8.328125 "/></g></g></g><g fill="#3a3a3a" fill-opacity="1"><g transform="translate(297.381232, 209.194446)"><g><path d="M 23.921875 -33.5625 C 27.804688 -33.5625 30.910156 -32.300781 33.234375 -29.78125 C 35.554688 -27.257812 36.71875 -23.796875 36.71875 -19.390625 L 36.71875 0 L 26.59375 0 L 26.59375 -18.03125 C 26.59375 -20.25 26.015625 -21.972656 24.859375 -23.203125 C 23.710938 -24.429688 22.171875 -25.046875 20.234375 -25.046875 C 18.285156 -25.046875 16.734375 -24.429688 15.578125 -23.203125 C 14.429688 -21.972656 13.859375 -20.25 13.859375 -18.03125 L 13.859375 0 L 3.6875 0 L 3.6875 -33.203125 L 13.859375 -33.203125 L 13.859375 -28.796875 C 14.890625 -30.265625 16.273438 -31.425781 18.015625 -32.28125 C 19.765625 -33.132812 21.734375 -33.5625 23.921875 -33.5625 Z M 23.921875 -33.5625 "/></g></g></g><g clip-path="url(#5187d875f3)"><path fill="#1c534a" d="M 261.378906 165.046875 C 261.585938 164.769531 261.695312 164.433594 261.695312 164.089844 L 261.695312 155.492188 C 261.695312 154.605469 260.976562 153.886719 260.089844 153.886719 L 210.265625 153.886719 C 209.378906 153.886719 208.660156 154.605469 208.660156 155.492188 L 208.660156 165.136719 C 208.660156 166.023438 209.378906 166.742188 210.265625 166.742188 L 244.015625 166.742188 L 207.371094 213.441406 C 207.164062 213.71875 207.050781 214.054688 207.050781 214.398438 L 207.050781 222.996094 C 207.050781 223.882812 207.773438 224.601562 208.660156 224.601562 L 260.089844 224.601562 C 260.976562 224.601562 261.695312 223.882812 261.695312 222.996094 L 261.695312 213.351562 C 261.695312 212.460938 260.976562 211.742188 260.089844 211.742188 L 226.339844 211.742188 Z M 261.378906 165.046875 " fill-opacity="1" fill-rule="nonzero"/></g></svg>